<?xml version="1.0" encoding="UTF-8" standalone="no" ?>
<!DOCTYPE svg PUBLIC "-//W3C//DTD SVG 1.1//EN" "http://www.w3.org/Graphics/SVG/1.1/DTD/svg11.dtd">
<svg xmlns="http://www.w3.org/2000/svg" xmlns:xlink="http://www.w3.org/1999/xlink" version="1.1" width="261.28333282470703" height="203.432" xml:space="preserve">
<desc>Created with Fabric.js 1.6.0-rc.1</desc>
<defs></defs>
  <g transform="translate(131.14 167.72)">
   <text font-family="Bombardier" font-size="40" font-weight="normal" style="stroke: none; stroke-width: 1; stroke-dasharray: none; stroke-linecap: butt; stroke-linejoin: miter; stroke-miterlimit: 10; fill: #ff6f00; fill-rule: nonzero; opacity: 1;" ><tspan x="-120.64" y="8.98" style="stroke: none; stroke-width: 0; stroke-dasharray: none; stroke-linecap: butt; stroke-linejoin: miter; stroke-miterlimit: 4; fill: #ff6f00; fill-rule: ; opacity: 1;">F</tspan><tspan x="-102.41" y="8.98" style="stroke: none; stroke-width: 0; stroke-dasharray: none; stroke-linecap: butt; stroke-linejoin: miter; stroke-miterlimit: 4; fill: #ff6f00; fill-rule: ; opacity: 1;">i</tspan><tspan x="-93.77" y="8.98" style="stroke: none; stroke-width: 0; stroke-dasharray: none; stroke-linecap: butt; stroke-linejoin: miter; stroke-miterlimit: 4; fill: #ff6f00; fill-rule: ; opacity: 1;">r</tspan><tspan x="-78.38" y="8.98" style="stroke: none; stroke-width: 0; stroke-dasharray: none; stroke-linecap: butt; stroke-linejoin: miter; stroke-miterlimit: 4; fill: #ff6f00; fill-rule: ; opacity: 1;">e</tspan><tspan x="-58.66" y="8.98" style="stroke: none; stroke-width: 0; stroke-dasharray: none; stroke-linecap: butt; stroke-linejoin: miter; stroke-miterlimit: 4; fill: #ff6f00; fill-rule: ; opacity: 1;"> </tspan><tspan x="-48.66" y="8.98" style="stroke: none; stroke-width: 0; stroke-dasharray: none; stroke-linecap: butt; stroke-linejoin: miter; stroke-miterlimit: 4; fill: #ff6f00; fill-rule: ; opacity: 1;">O</tspan><tspan x="-28.74" y="8.98" style="stroke: none; stroke-width: 0; stroke-dasharray: none; stroke-linecap: butt; stroke-linejoin: miter; stroke-miterlimit: 4; fill: #ff6f00; fill-rule: ; opacity: 1;">r</tspan><tspan x="-13.34" y="8.98" style="stroke: none; stroke-width: 0; stroke-dasharray: none; stroke-linecap: butt; stroke-linejoin: miter; stroke-miterlimit: 4; fill: #ff6f00; fill-rule: ; opacity: 1;">a</tspan><tspan x="6.17" y="8.98" style="stroke: none; stroke-width: 0; stroke-dasharray: none; stroke-linecap: butt; stroke-linejoin: miter; stroke-miterlimit: 4; fill: #ff6f00; fill-rule: ; opacity: 1;">c</tspan><tspan x="24.49" y="8.98" style="stroke: none; stroke-width: 0; stroke-dasharray: none; stroke-linecap: butt; stroke-linejoin: miter; stroke-miterlimit: 4; fill: #ff6f00; fill-rule: ; opacity: 1;">l</tspan><tspan x="33.18" y="8.98" style="stroke: none; stroke-width: 0; stroke-dasharray: none; stroke-linecap: butt; stroke-linejoin: miter; stroke-miterlimit: 4; fill: #ff6f00; fill-rule: ; opacity: 1;">e</tspan><tspan x="52.89" y="8.98" style="stroke: none; stroke-width: 0; stroke-dasharray: none; stroke-linecap: butt; stroke-linejoin: miter; stroke-miterlimit: 4; fill: #ff6f00; fill-rule: ; opacity: 1;"> </tspan><tspan x="62.89" y="8.98" style="stroke: none; stroke-width: 0; stroke-dasharray: none; stroke-linecap: butt; stroke-linejoin: miter; stroke-miterlimit: 4; fill: #ff6f00; fill-rule: ; opacity: 1;">V</tspan><tspan x="81.26" y="8.98" style="stroke: none; stroke-width: 0; stroke-dasharray: none; stroke-linecap: butt; stroke-linejoin: miter; stroke-miterlimit: 4; fill: #ff6f00; fill-rule: ; opacity: 1;">1</tspan><tspan x="90.89" y="8.98" style="stroke: none; stroke-width: 0; stroke-dasharray: none; stroke-linecap: butt; stroke-linejoin: miter; stroke-miterlimit: 4; fill: #ff6f00; fill-rule: ; opacity: 1;">.</tspan><tspan x="100.73" y="8.98" style="stroke: none; stroke-width: 0; stroke-dasharray: none; stroke-linecap: butt; stroke-linejoin: miter; stroke-miterlimit: 4; fill: #ff6f00; fill-rule: ; opacity: 1;">0</tspan></text>
 </g>
<g style="stroke: none; stroke-width: 1; stroke-dasharray: none; stroke-linecap: butt; stroke-linejoin: miter; stroke-miterlimit: 10; fill: none; fill-rule: nonzero; opacity: 1;" transform="translate(71.02 10) scale(0.23 0.23)" >
  <path d="M 385.334 172.525 l -50.086 -55.985 c -10.129 -11.353 -29.161 -4.23 -29.161 11.13 v 72.681 c 0 9.238 -7.456 16.695 -16.695 16.695 c -9.239 0 -16.695 -7.457 -16.695 -16.695 v -38.733 c 0 -25.377 -5.899 -49.864 -16.695 -71.679 c -21.369 -44.076 -61.997 -77.912 -111.748 -89.153 c -6.678 -2.115 -14.024 0.11 -18.364 5.788 c -4.787 6.344 -4.563 15.248 0.778 21.259 c 39.958 46.859 36.84 102.51 0 144.694 c -51.199 57.655 -48.082 135.233 0 189.215 c 28.381 31.833 69.23 50.086 111.858 50.086 h 34.95 c 42.629 0 83.477 -18.254 111.858 -50.086 C 436.533 304.085 433.416 226.507 385.334 172.525 z" style="stroke: none; stroke-width: 1; stroke-dasharray: none; stroke-linecap: butt; stroke-linejoin: miter; stroke-miterlimit: 10; fill: #EEBE43; fill-rule: nonzero; opacity: 1;" transform=" matrix(1 0 0 1 0 0) " stroke-linecap="round" />
  <path d="M 385.334 361.74 c -28.381 31.833 -69.23 50.086 -111.858 50.086 H 256 V 89.939 c 10.796 21.815 16.695 46.302 16.695 71.679 v 38.733 c 0 9.238 7.456 16.695 16.695 16.695 c 9.239 0 16.695 -7.457 16.695 -16.695 V 127.67 c 0 -15.36 19.033 -22.483 29.161 -11.13 l 50.086 55.985 C 433.416 226.507 436.533 304.085 385.334 361.74 z" style="stroke: none; stroke-width: 1; stroke-dasharray: none; stroke-linecap: butt; stroke-linejoin: miter; stroke-miterlimit: 10; fill: #E4A637; fill-rule: nonzero; opacity: 1;" transform=" matrix(1 0 0 1 0 0) " stroke-linecap="round" />
  <path d="M 238.522 378.436 c -33.195 0 -64.88 -14.184 -86.933 -38.918 c -38.5 -43.228 -38.489 -101.434 0.043 -144.824 c 37.293 -42.7 46.608 -95.069 28.022 -142.987 c 19.619 12.989 35.836 31.217 46.304 52.799 c 8.772 17.739 13.347 37.407 13.347 57.113 v 38.733 c 0 27.619 22.468 50.086 50.086 50.086 c 27.619 0 50.086 -22.468 50.086 -50.086 v -29.006 l 20.967 23.44 c 38.467 43.19 38.456 101.396 -0.076 144.786 c -22.01 24.679 -53.695 38.864 -86.89 38.864 L 238.522 378.436 L 238.522 378.436 z" style="stroke: none; stroke-width: 1; stroke-dasharray: none; stroke-linecap: butt; stroke-linejoin: miter; stroke-miterlimit: 10; fill: #f75604; fill-rule: nonzero; opacity: 1;" transform=" matrix(1 0 0 1 0 0) " stroke-linecap="round" />
  <path d="M 360.444 194.786 l -20.967 -23.44 v 29.006 c 0 27.619 -22.468 50.086 -50.086 50.086 c -12.874 0 -24.509 -5.018 -33.391 -13.027 v 141.025 h 17.478 c 33.195 0 64.88 -14.184 86.89 -38.864 C 398.9 296.182 398.911 237.976 360.444 194.786 z" style="stroke: none; stroke-width: 1; stroke-dasharray: none; stroke-linecap: butt; stroke-linejoin: miter; stroke-miterlimit: 10; fill: #ff9904; fill-rule: nonzero; opacity: 1;" transform=" matrix(1 0 0 1 0 0) " stroke-linecap="round" />
  <path d="M 445.215 378.436 H 66.785 v 133.563 h 378.43 c 36.826 0 66.782 -29.956 66.782 -66.782 S 482.04 378.436 445.215 378.436 z" style="stroke: none; stroke-width: 1; stroke-dasharray: none; stroke-linecap: butt; stroke-linejoin: miter; stroke-miterlimit: 10; fill: #724529; fill-rule: nonzero; opacity: 1;" transform=" matrix(1 0 0 1 0 0) " stroke-linecap="round" />
  <path d="M 445.215 378.436 H 256 v 133.563 h 189.215 c 36.826 0 66.782 -29.956 66.782 -66.782 S 482.04 378.436 445.215 378.436 z" style="stroke: none; stroke-width: 1; stroke-dasharray: none; stroke-linecap: butt; stroke-linejoin: miter; stroke-miterlimit: 10; fill: #875334; fill-rule: nonzero; opacity: 1;" transform=" matrix(1 0 0 1 0 0) " stroke-linecap="round" />
  <path d="M 66.785 511.999 c -36.826 0 -66.782 -29.956 -66.782 -66.782 s 29.956 -66.782 66.782 -66.782 s 66.782 29.956 66.782 66.782 S 103.61 511.999 66.785 511.999 z" style="stroke: none; stroke-width: 1; stroke-dasharray: none; stroke-linecap: butt; stroke-linejoin: miter; stroke-miterlimit: 10; fill: #F5DEB2; fill-rule: nonzero; opacity: 1;" transform=" matrix(1 0 0 1 0 0) " stroke-linecap="round" />
  <path d="M 445.215 461.913 h -89.042 c -9.217 0 -16.695 -7.473 -16.695 -16.695 c 0 -9.223 7.478 -16.695 16.695 -16.695 h 89.042 c 9.217 0 16.695 7.473 16.695 16.695 C 461.91 454.44 454.432 461.913 445.215 461.913 z" style="stroke: none; stroke-width: 1; stroke-dasharray: none; stroke-linecap: butt; stroke-linejoin: miter; stroke-miterlimit: 10; fill: #724526; fill-rule: nonzero; opacity: 1;" transform=" matrix(1 0 0 1 0 0) " stroke-linecap="round" />
  <path d="M 289.391 428.522 h -72.347 c -18.413 0 -33.391 -14.978 -33.391 -33.391 v -16.695 h -33.179 l 0.07 22.261 c 2.843 34.226 31.551 61.217 66.499 61.217 h 72.347 c 9.217 0 16.695 -7.473 16.695 -16.695 C 306.085 435.995 298.608 428.522 289.391 428.522 z" style="stroke: none; stroke-width: 1; stroke-dasharray: none; stroke-linecap: butt; stroke-linejoin: miter; stroke-miterlimit: 10; fill: #875334; fill-rule: nonzero; opacity: 1;" transform=" matrix(1 0 0 1 0 0) " stroke-linecap="round" />
  <path d="M 66.785 412.745 c -18.413 0 -33.391 14.978 -33.391 33.391 s 14.978 33.391 33.391 33.391 s 33.391 -14.978 33.391 -33.391 S 85.198 412.745 66.785 412.745 z" style="stroke: none; stroke-width: 1; stroke-dasharray: none; stroke-linecap: butt; stroke-linejoin: miter; stroke-miterlimit: 10; fill: #e6b775; fill-rule: nonzero; opacity: 1;" transform=" matrix(1 0 0 1 0 0) " stroke-linecap="round" />
  <path d="M 289.391 428.522 H 256 v 33.391 h 33.391 c 9.217 0 16.695 -7.473 16.695 -16.695 C 306.086 435.995 298.608 428.522 289.391 428.522 z" style="stroke: none; stroke-width: 1; stroke-dasharray: none; stroke-linecap: butt; stroke-linejoin: miter; stroke-miterlimit: 10; fill: #724526; fill-rule: nonzero; opacity: 1;" transform=" matrix(1 0 0 1 0 0) " stroke-linecap="round" />
</g>
</svg>